<svg version="1.2" xmlns="http://www.w3.org/2000/svg" viewBox="0 0 1440 144" width="1440" height="144">
	<defs>
		<clipPath clipPathUnits="userSpaceOnUse" id="cp1">
			<path d="m0 0h1440v160h-1440z"/>
		</clipPath>
		<clipPath clipPathUnits="userSpaceOnUse" id="cp2">
			<path d="m0-645h1440v1164h-1440z"/>
		</clipPath>
	</defs>
	<style>
		.s0 { fill: #11176f } 
		.s1 { fill: #edffef } 
	</style>
	<g id="Clip-Path" clip-path="url(#cp1)">
		<g>
			<path fill-rule="evenodd" class="s0" d="m0 0h1440v518h-1440z"/>
			<g id="Clip-Path" clip-path="url(#cp2)">
				<g style="opacity: .06">
					<path class="s1" d="m525.53 97.89l-0.09 0.06 186.41 220.72 0.09-0.05z"/>
					<path class="s1" d="m1090.48 189.59l11.12-59.13-11.12 59.22z"/>
					<path class="s1" d="m1117.79 27.47l-0.06 0.09-21.66 115.47z"/>
					<path class="s1" d="m1242.89 38.92l-41.64 41.16z"/>
					<path class="s1" d="m1242.66 38.92l-120.67-13.64z"/>
					<path class="s1" d="m1129.65 23.74l26.27 3.03-26.21-3.03z"/>
					<path class="s1" d="m1247.57 36.72l-0.12 0.16 1.04 0.5 0.12-0.16z"/>
					<path class="s1" d="m1090.48 189.59v0.09l-0.69 3.45 0.46 0.28-0.34 0.37 63.07 62.39-62.84-62.3 7.89-7.63 145.96-144.34 0.23-2.93-1.33-0.05-41.64 41.16z"/>
					<path class="s1" d="m1247.24 39.53l-23.33 280.93 0.11 0.01 23.34-280.93z"/>
					<path class="s1" d="m1247.44 37.01l0.23-2.79-0.28 0.37v2.47h0.05z"/>
					<path class="s1" d="m1223.94 320.47l-0.06 0.09 23.33-280.94h0.06l134.55 26.3-136.28-26.67-1.32-0.28-0.23 2.93-15.55 187.36-7.78 94.14 0.75 0.75 0.69-1.49 0.23 0.55 159.72-256.96h-0.11z"/>
					<path class="s1" d="m1383.38 69.65l-103.45 166.45z"/>
					<path class="s1" d="m1247.44 37.06h-0.05l125.62 24.58h-0.11l-124.3-24.35z"/>
					<path class="s1" d="m1381.82 65.92l-0.34 0.33h0.46 0.11l0.23-0.33z"/>
					<path class="s1" d="m1439.92 58.05l-7.19 5.77 0.04 0.03 7.19-5.77z"/>
					<path class="s1" d="m1428.42 63.92h0.12 0.06l11.4-9.31-5.99 4.84 5.99-10.61v-5.87l-11.81 20.95z"/>
					<path class="s1" d="m1385.86 63.92h1.61l52.53-58.29v-4.24l-54.32 60.25z"/>
					<path class="s1" d="m1306.37-128l50.97 128.55-50.97-128.64z"/>
					<path class="s1" d="m1432.8 63.92h-0.06l-0.06 0.05h0.06z"/>
					<path class="s1" d="m1385.97 64.06l32.08 7.31 0.35-6.75 1.9 5.82 8.12-6.52h-0.23-40.72-1.61z"/>
					<path class="s1" d="m894.93 153.32l15.55 38.88-120.5-23.8-0.8-0.09 105-16.76-110.47 17.55 0.05 0.65 26.56 5.26 97.05 19.09 3.52-0.97z"/>
					<path class="s1" d="m784.91 166.49l42.05-6.75z"/>
					<path class="s1" d="m896.31 148.66l0.12 0.19z"/>
					<path class="s1" d="m254.48 1.02l-21.37 119.19 21.42-119.19z"/>
					<path class="s1" d="m282.76 173.85l-58.12 10.62 11.17-62.11-11.23 62.11z"/>
					<path class="s1" d="m357.39 37.81l-170.02 101 0.04 0.04 170.01-101z"/>
					<path class="s1" d="m283.1 172.59h0.06l-26.9-164.12v0.14l26.04 159.05z"/>
					<path class="s1" d="m1116.86 18.95l-1.9-6.15z"/>
					<path class="s1" d="m1123.32 22.2l51.09-59.64h0.11-0.06z"/>
					<path class="s1" d="m1172.04-38.93v-0.05l-37.15 43.26z"/>
					<path class="s1" d="m736.7 4.14l0.06-0.14-22.98-96.43z"/>
					<path class="s1" d="m601.9-131.51l-0.05 0.02 130.38 136.81 0.05-0.03z"/>
					<path class="s1" d="m604.57-132.61l128.62 134.84-127.81-134.09 97.28 6.14v-0.23l-1.27-0.32 0.98-0.89-0.28-0.98-2.77-0.18-93.2-5.87-1.21 0.75 1.16 0.46z"/>
					<path class="s1" d="m735.96 5.02l32.25-35.89-31.45 34.87-0.06 0.14-22.92-96.57-7.78-32.54-3.34-0.98 0.46 1.91 30.07 126.27 1.38 1.49v-0.14z"/>
					<path class="s1" d="m734.28 9.91l0.06-1.81-1.03-0.1-6.4 6.99z"/>
					<path class="s1" d="m822.7-91.45l-54.49 60.58-32.26 35.89 0.23 0.38 113.71-79.34-0.06-0.09-104.95 73.28 80.58-89.49-0.97-0.65h-1.21l0.17-0.65-0.4-0.28z"/>
					<path class="s1" d="m601.8-131.54l130.47 136.8h0.11l-1.15-1.31 3.29 1.31 0.05-1.54-1.38-1.49-128.62-134.84-1.84 0.51-136.46 84.74z"/>
					<path class="s1" d="m1415.4 81.06h-0.11v210.07h0.11z"/>
					<path class="s1" d="m1394.32 174.04l-10.88-104.48-0.06 0.09z"/>
					<path class="s1" d="m1385.97 64.06v0.28l9.91 4.19-9.22-1.63h0.12l29.83 6.57 1.21-0.93-0.23-0.8h0.46v-0.37z"/>
					<path class="s1" d="m1421.45 73.98l17.57 53.87-17.51-53.87z"/>
					<path class="s1" d="m1418.4 64.62l-0.35 6.75v0.37h0.81l1.44-1.3z"/>
					<path class="s1" d="m1409.99 291.04l10.66-209.94v0.1l8.52 25.88-10.77-33.01-0.46 0.1-4.44 87.57-5.7 111.89 1.96 17.46 30.24-12.15-29.95 12.1z"/>
					<path class="s1" d="m1386.2 67.27l-2.19-1.02-1.73-0.33-0.23 0.33-159.72 256.96 0.63 1.91 1.79-0.37 55.18-88.65 103.45-166.45 0.06-0.09 10.88 104.48 12.27 116.82 1.44 0.6 0.46-0.42 0.58 0.61 0.69-0.19v-0.37l-1.96-17.46v-0.14z"/>
					<path class="s1" d="m1385.74 64.25l0.23 0.09v-0.28l-0.11-0.14-0.18-2.28-0.11-1.02-0.81 1.39z"/>
					<path class="s1" d="m966.36 148.94l0.11-0.09-55.53 1.91z"/>
					<path class="s1" d="m966.7 146.38h-0.11l-48.91 1.72z"/>
					<path class="s1" d="m974.02 146.19l-1.21 0.94z"/>
					<path class="s1" d="m911.75 193.03l54.61-44.09-52.88 42.65-16.19-40.37-1.84 0.14-1.27 0.19 0.75 1.77 15.96 39.81 0.17 0.37z"/>
					<path class="s1" d="m1042.1 263.9l-2.59-4.05-101.38-54.01-22.87-12.06 0.52-0.47 53.97-43.76-0.51-0.7h-2.77l-0.11 0.09-54.61 44.09-0.69 0.47-0.63 0.6 0.69 0.38 0.4 0.18 1.56 0.75 129.25 68.86z"/>
					<path class="s1" d="m1044.06 265.2l1.21-1.81 0.23-0.47 1.61-2.56 4.21-6.47 36.4-56.71 1.04-1.63-1.33-0.65-116.87-45.91-0.35 0.28-0.63-0.65-0.34 0.18 0.51 0.75 69.76 110.25 2.59 4.1 0.23 0.37 0.52 0.84 0.23 0.37 0.4 0.56zm-70.5-114.91l112.49 44.19-42.63 66.16-30.35-48.05z"/>
					<path class="s1" d="m1115.77 25.51l-21.49 17.83z"/>
					<path class="s1" d="m972.35 147.5l1.32 1.07-2.82 0.09-0.35 0.37 116.87 45.91 1.33 0.65 0.57 0.19 0.29-1.54 0.17-1.07 0.7-3.44 11.11-59.18 19.36-103.74-1.1-1.07zm1.67-1.3l143.71-118.64 0.06-0.09-21.72 115.52-8.99 48-0.17 0.98-1.21-0.47-112.95-44.46z"/>
					<path class="s1" d="m138.02-72.42l-138.04 86.09 0.03 0.04 138.04-86.1z"/>
					<path class="s1" d="m0 87.11l15.78 7.08z"/>
					<path class="s1" d="m84.67 236.1h0.12l-0.69-0.84-84.1-101.96v0.18z"/>
					<path class="s1" d="m109.09 24.11l143.77-25.37z"/>
					<path class="s1" d="m259.43-0.14h-0.12v0.6h0.12z"/>
					<path class="s1" d="m143.08-72.45l34.27 22.21-34.62-22.54-4.66 0.37-138.07 86.05v3.16z"/>
					<path class="s1" d="m219.4 186.05h0.06l1.26-0.47-1.49-2.37-219.23-99.03v2.93l15.78 7.08z"/>
					<path class="s1" d="m222.91 184.75l0.64-0.28 0.51 0.83 0.35 0.28v-0.09l0.17-1.02 11.23-62.11 20.45-113.75v-0.14l-1.21-7.54-0.52 0.09-21.42 119.19-11.46 63.93z"/>
					<path class="s1" d="m253.67-0.66l-0.81-0.6-143.77 25.37-109.09 19.09v2.52l248.03-43.63z"/>
					<path class="s1" d="m737.34 10.75l-1.62 39.81z"/>
					<path class="s1" d="m728.29 87.62l-172.85-78.03 172.8 78.03z"/>
					<path class="s1" d="m734.4 7.91l-1.21-0.51 0.69-0.47-1.5-1.67h-0.11-0.12l-277.92-45.17-0.8 0.52 6.45 2.88 273.43 44.51 1.03 0.1-0.06 1.81-2.99 76.27z"/>
					<path class="s1" d="m779.39 169.85l1.03-1.73-48.04-77.57 47.47 76.64 0.11 0.28-3.45 0.84-315.65 80.08-5.88 3.45 0.29 0.19-0.98 0.32 0.12 0.19 286.61-72.59 39.4-10.1h0.06 0.29v-0.28z"/>
					<path class="s1" d="m749.49 70.81l-15.09 14.11 1.33-34.36 1.61-39.81 34.9 38.83-37.26-41.48-0.58-0.19-3.11 78.27 1.09 0.56z"/>
					<path class="s1" d="m740.68 10.29l11.92 13.31z"/>
					<path class="s1" d="m735.73 5.72l0.46-0.32-0.23-0.38-1.39-1.44v0.14l-0.06 1.54z"/>
					<path class="s1" d="m731.12 90.83l-0.06 0.89 1.32-1.17-0.23-0.37z"/>
					<path class="s1" d="m774.26 47.67l0.75 0.79h0.69l-0.17-1.86z"/>
					<path class="s1" d="m775.81 50.89l2.25 32.59z"/>
					<path class="s1" d="m773.34 59.69l6.85 102.61-45.16-73.1-1.61 0.24-1.27 0.74 0.23 0.37 48.04 77.57 0.23-0.28z"/>
					<path class="s1" d="m736.7 86.46l36.23-33.67-0.17-2.7-0.52-0.51-22.75 21.23-17.11 15.93 0.7 0.37z"/>
					<path class="s1" d="m795.05-22.03h-0.11v100.71h0.11z"/>
					<path class="s1" d="m861.29 53.68l-2.01-0.89-2.13 0.28 0.51 0.47z"/>
					<path class="s1" d="m824.31 52.42l-48.5-1.53z"/>
					<path class="s1" d="m734.92 6.19l0.81-0.47-1.21-0.46-3.29-1.31 1.15 1.31 1.5 1.67z"/>
					<path class="s1" d="m772.65 48.42l1.55 0.04 53.22 1.73-51.72-1.73h-0.69l-0.75-0.79-21.66-24.07-11.92-13.31 36.17 13.82-41.87-16.01 37.26 41.48 0.52 0.51z"/>
					<path class="s1" d="m855.36 48.74l-0.23-20.53z"/>
					<path class="s1" d="m776.85 24.11l69.52 26.64 5.36 0.14-0.46-0.94-112.61-43.16h0.06l17.86-12.47 94.11-65.7v0.05l1.62 120.4v0.14l-1.5-122.59-0.92-0.56-113.7 79.34-0.46 0.32-0.81 0.47-1.04 0.74-0.69 0.47 1.21 0.51 0.58 0.19z"/>
					<path class="s1" d="m825.87 100.29l-40.96 66.2z"/>
					<path class="s1" d="m851.85 51.12l-0.12-0.23-5.36-0.14-18.95-0.56-53.22-1.73-1.55-0.04 0.11 1.67 0.17 2.7 0.41 6.9 7.31 108.16 2.77-4.47-5.36-79.9-2.24-32.59 48.49 1.53 26.5 0.89 1.04-1.03-1.15-1.02z"/>
					<path class="s1" d="m857.49 56.89l0.12 0.28z"/>
					<path class="s1" d="m780.65 167.84l-0.23 0.28-1.03 1.73 1.38-0.28 2.42-0.38 0.52-0.09 110.47-17.55 1.27-0.19h-1.27l-0.34-0.88-15.32-36.09 14.74 34.64v0.19l-66.3 10.52-42.05 6.75 40.96-66.2 27.76-44.93-0.34-0.75-0.92 1.03v-2.1l-1.1 0.14-67.85 109.7z"/>
					<path class="s1" d="m850.29 47.53l0.98 2.28v0.14l0.46 0.94 0.12 0.23h0.52l-0.06-1.91v-0.14z"/>
					<path class="s1" d="m970.22 145.82l-79.55-65.28z"/>
					<path class="s1" d="m973.67 148.57l-1.32-1.07-1.5 1.16z"/>
					<path class="s1" d="m969.12 148.29l-94.52-77.48 91.99 75.57h0.11l-49.02 1.72-21.25 0.75-0.12-0.19-38.7-91.49-0.12-0.28-3.51-2.84-0.69 0.56 0.34 0.75 24.88 59.03 15.33 36.09 0.34 0.88h1.27l1.84-0.14 13.65-0.46 55.53-1.91h2.77l0.34-0.19z"/>
					<path class="s1" d="m1117.04 23.04l-164.28 17.42z"/>
					<path class="s1" d="m851.85 51.12l-1.16 0.14 1.16 1.02 0.51-0.51v-0.65z"/>
					<path class="s1" d="m853.98 54.05l3.51 2.89 17.11 13.92 94.58 77.48 0.46 0.37 0.63 0.65 0.35-0.28 0.34-0.37 1.44-1.17 147.52-121.8-0.46-0.46-2.83 0.46 0.18-0.23-262.14 27.89zm5.3-1.26l256.49-27.28-21.49 17.83-124.06 102.48-79.55-65.28-33.01-27-0.51-0.47z"/>
					<path class="s1" d="m853.29 54.61l0.69-0.56 0.63-0.74-2.24 0.23v2.09z"/>
					<path class="s1" d="m851.96-75.25l-1.27 0.14 0.12 1.73 1.5 122.59 0.05 1.91v0.65l0.29-0.37 2.71-2.66-0.23-20.53-1.38-101.17 141.64-17.23 2.87-2-0.63-0.61 0.69-0.09-0.06-0.09-17.85 2.09z"/>
					<path class="s1" d="m1038.24-53.41l78.8 76.45-164.28 17.42-95.27 10.1 96.37-94.89 46.54-45.81-0.18-0.19-0.46 0.33-0.17-0.61-3.23 0.61-141 138.74-2.71 2.66-0.29 0.37-0.51 0.51-1.04 1.03-0.52 0.51 0.98-0.14 1.09-0.14 2.25-0.23 262.14-27.89 0.52-0.56-7.09-0.89 6.97-0.93z"/>
					<path class="s1" d="m1019.29-75.71l97.63 94.8-0.06-0.14z"/>
					<path class="s1" d="m1119.8 25.65l1.15 1.12 2.02 2.05-0.98-3.54-1.9-0.1h-0.69z"/>
					<path class="s1" d="m1120.61 20.99l-25.23-83.25-13.77-45.48-0.34-1.26-2.71 0.56h-0.23l-58.29 11.31-20.05 3.91-0.34 0.05-1.33 0.32-0.69 0.05 0.64 0.61 1.61 1.49 0.34 0.37 0.18 0.19 37.84 36.73 78.85 76.45 1.91-0.23zm-3.69-1.91l-97.57-94.8-16.07-15.59 51.03-9.87 24.77-4.8 36 118.78 1.84 6.14z"/>
					<path class="s1" d="m1120.61 20.99l-1.56 1.82 0.69-0.14 122.46-17.55-33.81-21.28 33.81 21.28-118.88 17.08 51.14-59.64-2.42-1.49-37.15 43.21z"/>
					<path class="s1" d="m1244.39 7.31l-54.03 7.68z"/>
					<path class="s1" d="m1116.58 25.65l2.82-0.47h0.69l-2.82-0.32-0.52 0.56z"/>
					<path class="s1" d="m1119.74 22.67l-0.69 0.14-1.9 0.23-6.97 0.93 7.09 0.89 2.82 0.32 1.9 0.1 120.67 13.64h0.23l1.33 0.05 1.32 0.28-1.15-0.28v-2.33l-88.47-9.87-26.27-3.03h0.06l60.65-8.75 54.03-7.68v-0.75l-0.4-0.14 0.05-0.23-1.84-1.07z"/>
					<path class="s1" d="m1306.37-128v-0.09-0.05l-58.7 133.4h0.06z"/>
					<path class="s1" d="m1302.74-131.02l-128.33 90-0.23 0.18-0.06 0.05-0.98 0.65-0.12 0.05-1.15 0.84-0.11 0.09 0.28 0.19v0.04l2.42 1.49h0.06l7.09 4.42 26.78 16.86 33.81 21.28 1.84 1.07 0.35-0.56v-1.82l0.63 0.19 44.99-102.29-44.93 102.1-68.54-43.11 70.27-49.26 56.27-39.44 1.96-4.61-0.8 0.56z"/>
					<path class="s1" d="m1385.97 64.34l-0.23-0.09 0.92 2.65 9.22 1.63z"/>
					<path class="s1" d="m1244.39 7.31v29.33 2.33l1.15 0.28 136.28 26.67h0.46l1.73 0.33-0.29-0.09-95.96-40.98 85.14 36.46h0.11l-125.62-24.58v-2.47-26.68l-3-1.35z"/>
					<path class="s1" d="m1247.67 5.26l134.15 57.27-134.09-57.27z"/>
					<path class="s1" d="m1243.7 4.35l-0.1 0.41 1.97 0.34 0.11-0.41z"/>
					<path class="s1" d="m1305.04-132.61l-1.96 4.61-13.13 29.75-44.93 102.3-0.63 1.35-0.06 0.23-0.34 0.6-0.06 0.24 0.4 0.14 3.06 1.3 40.37 17.32 95.96 40.97 0.29 0.1 2.19 1.02 0.81 0.37-0.23-0.74h-0.12l-0.98-2.65-0.98-2.29-74.3-187.87-1.84-4.7-0.58-1.3-0.11-0.47-0.75-1.72-0.75-1.72-0.58 1.3zm76.78 195.13l-134.15-57.27 58.7-133.39v0.05l50.97 128.69z"/>
					<path class="s1" d="m1425.6 66.25l3-2.33h-0.06-0.12l-8.12 6.52-1.44 1.3h0.58l20.56-1.3v-3.82z"/>
					<path class="s1" d="m1416.61 73.47l-1.03 0.88 2.36-0.18 0.46-0.1-0.58-1.53z"/>
					<path class="s1" d="m1419.44 71.74h-0.58-0.81-0.46l0.23 0.8 0.58 1.53 10.77 33.01 10.83 33.29v-9.54l-0.98-2.98-17.57-53.87h0.06l18.49-0.98v-2.56z"/>
					<path class="s1" d="m1428.6 63.92l-3 2.33 14.4 0.37v-2.37l-7.26-0.28h-0.06l0.06-0.05 7.26-5.77v-3.54z"/>
					<path class="s1" d="m84.67 236.1l-84.67-102.62v4.29l61.98 75.19z"/>
					<path class="s1" d="m80.99 239.73l2.41-0.65-0.4-0.51-2.53-0.84 1.61-0.65-1.09-1.91 3.16 1.12 0.52-0.19-22.69-23.14-61.98-63.32v4l12.9 13.23 68.72 70.21-81.62 21.46v2.56l29.95-7.91z"/>
					<path class="s1" d="m389.03 140.75l-47.92 16.29z"/>
					<path class="s1" d="m329.76 72.91l61.29 62.95z"/>
					<path class="s1" d="m283.16 172.59l0.17 1.26 2.94-1.02-27.76-169.11 0.11 0.09 130.64 134.19-133.52-137.21-0.69 0.14 1.21 7.54z"/>
					<path class="s1" d="m448.53-37.58l-23.1 69.61z"/>
					<path class="s1" d="m389.26 138l0.46-0.09-0.17-0.33 0.92-0.19 0.58-1.53-61.29-62.95-70.68-72.73h-0.11l-2.07 0.37-0.7 0.38-0.23-0.14h-0.23z"/>
					<path class="s1" d="m393.98 136.46l-0.17 0.47h0.29l0.29-0.65z"/>
					<path class="s1" d="m284.95 175.95l3.51 1.35 68.55 25.37h0.05l3.23-0.74 0.34-0.7-27.24-10.1-44.58-16.49h0.05l52.25-17.6 47.92-16.29-26.9 57.26 27.94-59.45-0.35-0.65-0.46 0.09-102.99 34.83-2.94 1.02-0.4 0.19-1.73 0.56 2.36 0.88z"/>
					<path class="s1" d="m452.97 249.93h0.05l-0.23-0.37-58.86-110.07h-0.06z"/>
					<path class="s1" d="m391.8 141.72l30 56.2-30.98-58.01-1.16 0.09 0.46-1.44h-0.05l-27.94 59.45-1.5 3.22-0.34 0.7h0.06l0.46-0.8 0.98 0.47 2.18-0.47z"/>
					<path class="s1" d="m391.05 135.86l-0.58 1.53 1.04-0.09 341.57-50.19-0.64-0.37-1.09-0.56-271.41-122.69-6.45-2.93-1.22 0.79v0.37l-0.97 0.19-1.96 1.16-0.06-0.79-0.81 0.1-23.09 69.6zm60.59-173.25l103.8 46.98 172.91 78.08h-0.06l-334.13 49.26h-0.35l0.17-0.46z"/>
					<path class="s1" d="m726.39 90.46l-120.38 17.74 120.33-17.74z"/>
					<path class="s1" d="m735.03 89.2l2.13-0.37-1.55-0.65-2.19 1.26z"/>
					<path class="s1" d="m389.66 140l1.16-0.09-0.7-1.35z"/>
					<path class="s1" d="m460.86 248.39l0.17-0.09 270.09-157.47 1.09-0.65 1.27-0.74 2.19-1.26 3.51-2.09-2.48 0.37-3.68 0.65-341.57 50.19-1.04 0.09-0.92 0.19 0.12 0.37 0.4 0.66 0.69 1.35 30.99 58.01 27.01 50.52 3.63 2 7.2-2.98-4.95 4.19 0.35 0.19zm-66.94-108.91l212.14-31.29 120.33-17.74-273.14 159.28-0.17 0.19h-0.12z"/>
					<path class="s1" d="m256.9 0.55l-0.93 0.24 0.24 0.14z"/>
					<path class="s1" d="m255.05 0.93l0.69-0.14h0.23l0.93-0.24 2.07-0.37 0.69-0.14 188.87-37.62 0.81-0.09-0.35-2.56-2.48 0.51-177.17 35.34-3.98 0.7h-0.05l72.63-36.27 105.06-52.62-0.23-2.65-4.55 2.24h-0.11l-180.52 90.41-0.92 0.38-0.24 0.14-2.76 1.39-5.64 2.75h-0.06l-0.69 0.37 7.2-1.44h0.05z"/>
				</g>
			</g>
		</g>
	</g>
</svg>